<svg width="543" height="893" viewBox="0 0 543 893" fill="none" xmlns="http://www.w3.org/2000/svg">
<path d="M189.97 535.362C181.264 543.103 167.5 536.923 167.5 525.273V410C167.5 402.544 173.544 396.5 181 396.5H310.649C323.061 396.5 328.895 411.841 319.619 420.089L189.97 535.362Z" fill="white" stroke="black" stroke-width="3"/>
<path d="M23.9702 887.362C15.2644 895.103 1.5 888.923 1.5 877.273V762C1.5 754.544 7.54416 748.5 15 748.5H144.649C157.061 748.5 162.895 763.841 153.619 772.089L23.9702 887.362Z" fill="white" stroke="black" stroke-width="3"/>
<path d="M136.235 600.638C144.941 592.897 158.705 599.077 158.705 610.727V726C158.705 733.456 152.661 739.5 145.205 739.5H15.5563C3.14365 739.5 -2.69019 724.159 6.58607 715.911L136.235 600.638Z" fill="white" stroke="black" stroke-width="3"/>
<path d="M23.9702 689.362C15.2644 697.103 1.5 690.923 1.5 679.273V564C1.5 556.544 7.54416 550.5 15 550.5H144.649C157.061 550.5 162.895 565.841 153.619 574.089L23.9702 689.362Z" fill="white" stroke="black" stroke-width="3"/>
<path d="M136.235 402.638C144.941 394.897 158.705 401.077 158.705 412.727V528C158.705 535.456 152.661 541.5 145.205 541.5H15.5563C3.14365 541.5 -2.69019 526.159 6.58607 517.911L136.235 402.638Z" fill="white" stroke="black" stroke-width="3"/>
<path d="M23.9702 491.362C15.2644 499.103 1.5 492.923 1.5 481.273V366C1.5 358.544 7.54416 352.5 15 352.5H144.649C157.061 352.5 162.895 367.841 153.619 376.089L23.9702 491.362Z" fill="white" stroke="black" stroke-width="3"/>
<path d="M136.235 204.638C144.941 196.897 158.705 203.077 158.705 214.727V330C158.705 337.456 152.661 343.5 145.205 343.5H15.5563C3.14365 343.5 -2.69019 328.159 6.58607 319.911L136.235 204.638Z" fill="white" stroke="black" stroke-width="3"/>
<path d="M23.9702 293.362C15.2644 301.103 1.5 294.923 1.5 283.273V168C1.5 160.544 7.54416 154.5 15 154.5H144.649C157.061 154.5 162.895 169.841 153.619 178.089L23.9702 293.362Z" fill="white" stroke="black" stroke-width="3"/>
<path d="M136.235 6.63786C144.941 -1.10262 158.705 5.07745 158.705 16.7267V132C158.705 139.456 152.661 145.5 145.205 145.5H15.5563C3.14365 145.5 -2.69019 130.159 6.58607 121.911L136.235 6.63786Z" fill="white" stroke="black" stroke-width="3"/>
<path d="M189.97 140.362C181.264 148.103 167.5 141.923 167.5 130.273V15C167.5 7.54416 173.544 1.5 181 1.5H310.649C323.061 1.5 328.895 16.8412 319.619 25.0889L189.97 140.362Z" fill="white" stroke="black" stroke-width="3"/>
<path d="M353.235 6.63786C361.941 -1.10262 375.705 5.07745 375.705 16.7267V132C375.705 139.456 369.661 145.5 362.205 145.5H232.556C220.144 145.5 214.31 130.159 223.586 121.911L353.235 6.63786Z" fill="white" stroke="black" stroke-width="3"/>
<path d="M406.97 140.362C398.264 148.103 384.5 141.923 384.5 130.273V15C384.5 7.54416 390.544 1.5 398 1.5H527.649C540.061 1.5 545.895 16.8412 536.619 25.0889L406.97 140.362Z" fill="white" stroke="black" stroke-width="3"/>
</svg>
